<?xml version="1.0" standalone="no"?>
<!DOCTYPE svg PUBLIC "-//W3C//DTD SVG 20010904//EN"
 "http://www.w3.org/TR/2001/REC-SVG-20010904/DTD/svg10.dtd">
<svg version="1.0" xmlns="http://www.w3.org/2000/svg"
 width="898.000000pt" height="484.000000pt" viewBox="0 0 898.000000 484.000000"
 preserveAspectRatio="xMidYMid meet">

<g transform="translate(0.000000,484.000000) scale(0.100000,-0.100000)"
fill="#000000" stroke="none">
<path d="M1348 2999 c-262 -35 -481 -219 -565 -474 -37 -113 -39 -285 -5 -395
74 -234 237 -399 466 -469 137 -42 311 -36 434 15 l32 13 0 121 0 121 -42 -25
c-97 -57 -254 -72 -369 -36 -126 38 -226 125 -286 247 -31 64 -36 84 -41 168
-6 118 14 200 68 283 151 232 451 291 675 131 66 -48 134 -136 167 -217 l23
-57 0 -705 c0 -785 5 -730 -69 -808 -52 -56 -101 -76 -181 -76 -83 0 -132 21
-187 82 -149 165 -32 422 194 422 l48 0 0 100 0 100 -27 6 c-42 11 -160 -13
-231 -46 -182 -85 -295 -297 -263 -494 39 -235 230 -397 467 -397 207 0 374
121 446 323 21 60 22 75 20 323 -2 143 0 331 3 417 l7 156 57 -46 c168 -137
416 -185 621 -120 l75 24 3 122 3 122 -58 -29 c-84 -42 -151 -54 -255 -49 -77
5 -99 11 -164 43 -289 142 -358 514 -139 744 227 239 616 182 759 -111 20 -40
41 -97 46 -127 6 -29 10 -206 10 -392 l0 -339 105 0 105 0 0 254 0 253 43 6
c23 3 151 11 284 17 310 15 713 -5 713 -35 0 -6 -14 -40 -31 -75 -87 -173
-300 -283 -487 -250 -82 14 -159 48 -229 100 l-52 40 -116 0 -116 0 15 -28
c45 -87 168 -202 272 -255 113 -57 179 -72 319 -72 114 1 140 4 210 28 150 50
281 150 363 275 l37 57 3 151 3 152 -28 26 c-15 15 -53 36 -82 47 -187 70
-454 84 -829 43 -74 -8 -136 -14 -139 -14 -12 0 11 79 39 138 35 75 121 165
194 204 172 93 387 71 529 -54 l43 -38 116 0 c64 0 116 4 116 9 0 4 -12 26
-26 47 -147 217 -407 338 -655 304 -232 -32 -423 -163 -528 -363 l-29 -54 -17
36 c-58 122 -184 249 -309 310 -110 54 -191 73 -306 74 -216 0 -402 -88 -537
-253 l-58 -71 -19 28 c-44 64 -173 179 -241 215 -127 66 -282 95 -417 77z"/>
</g>
</svg>
