<?xml version="1.0" standalone="no"?>
<!DOCTYPE svg PUBLIC "-//W3C//DTD SVG 20010904//EN"
 "http://www.w3.org/TR/2001/REC-SVG-20010904/DTD/svg10.dtd">
<svg version="1.0" xmlns="http://www.w3.org/2000/svg"
 width="540.000000pt" height="270.000000pt" viewBox="0 0 540.000000 270.000000"
 preserveAspectRatio="xMidYMid meet">

<g transform="translate(0.000000,270.000000) scale(0.100000,-0.100000)"
fill="#000000" stroke="none">
<path d="M588 1901 c-73 -24 -158 -111 -158 -163 0 -16 -11 -18 -120 -18
l-120 0 0 -425 0 -426 348 3 c344 3 347 3 396 27 61 30 117 87 148 149 22 46
23 56 26 360 l3 312 -119 0 -119 0 -11 38 c-13 43 -67 104 -114 128 -36 19
-123 27 -160 15z m125 -65 c38 -15 97 -79 97 -104 0 -14 -16 -22 -67 -36 -38
-9 -79 -18 -93 -18 -26 0 -155 33 -164 42 -3 3 5 23 17 45 39 70 135 103 210
71z m-122 -185 l57 -22 72 20 c46 13 122 23 211 27 l139 7 -1 -144 c-1 -79 -4
-133 -6 -119 -3 14 -18 44 -33 67 -16 23 -25 44 -22 46 4 2 2 3 -4 1 -6 -1
-27 7 -45 18 -20 12 -59 23 -95 26 -76 6 -137 -19 -184 -75 l-33 -40 -46 48
c-121 124 -311 72 -365 -102 -13 -42 -14 -36 -15 115 l-1 158 158 -4 c130 -4
167 -9 213 -27z m-56 -134 c127 -72 124 -249 -5 -314 -54 -28 -109 -29 -158
-4 -71 36 -102 87 -102 167 0 52 16 88 57 126 56 53 140 63 208 25z m400 0
c127 -72 124 -249 -5 -314 -73 -37 -145 -27 -208 31 -37 33 -52 70 -52 126 0
57 15 93 57 132 56 53 140 63 208 25z m-673 -264 c38 -78 144 -127 229 -105
l44 12 53 -55 c30 -30 57 -55 60 -55 4 0 32 25 63 56 49 49 59 55 77 45 85
-45 248 40 275 144 2 11 5 -18 6 -65 2 -156 -49 -250 -160 -299 -42 -19 -68
-20 -365 -22 l-319 -1 -2 219 c-1 157 1 211 8 193 6 -14 20 -44 31 -67z m393
-3 c3 -5 -1 -10 -10 -10 -9 0 -13 5 -10 10 3 6 8 10 10 10 2 0 7 -4 10 -10z
m49 -61 l28 -22 -43 -43 c-41 -42 -44 -43 -62 -26 -11 9 -28 30 -40 46 l-20
29 22 18 c31 25 82 24 115 -2z"/>
<path d="M477 1445 c4 -16 -1 -33 -12 -45 -19 -21 -69 -27 -80 -10 -14 22 -25
8 -25 -33 0 -49 19 -81 60 -102 39 -20 69 -19 108 5 83 51 64 182 -29 205 -24
6 -26 4 -22 -20z"/>
<path d="M832 1440 c1 -16 -5 -36 -12 -45 -16 -19 -64 -19 -80 0 -30 37 -41
-48 -13 -96 17 -29 67 -59 98 -59 32 0 86 33 100 61 30 56 9 126 -45 154 -41
21 -49 19 -48 -15z"/>
</g>
</svg>
