<?xml version="1.0" standalone="no"?>
<!DOCTYPE svg PUBLIC "-//W3C//DTD SVG 20010904//EN"
 "http://www.w3.org/TR/2001/REC-SVG-20010904/DTD/svg10.dtd">
<svg version="1.0" xmlns="http://www.w3.org/2000/svg"
 width="866.000000pt" height="650.000000pt" viewBox="0 0 866.000000 650.000000"
 preserveAspectRatio="xMidYMid meet">

<g transform="translate(0.000000,650.000000) scale(0.100000,-0.100000)"
fill="#000000" stroke="none">
<path d="M1530 4429 c-212 -35 -391 -250 -412 -494 l-4 -40 -241 -3 c-188 -2
-243 -5 -252 -16 -8 -10 -9 -74 -1 -242 55 -1231 57 -1278 73 -1316 18 -42 67
-95 102 -108 30 -11 1531 -14 1586 -3 44 9 115 80 128 130 5 21 17 180 25 353
9 173 25 508 37 743 16 334 18 431 9 442 -10 12 -57 15 -253 17 l-240 3 -4 40
c-12 137 -68 259 -161 355 -76 76 -145 115 -241 136 -74 15 -74 15 -151 3z
m202 -147 c25 -13 68 -44 95 -69 26 -26 51 -46 54 -45 4 1 6 -4 6 -11 -1 -7
11 -37 26 -68 30 -62 53 -159 44 -184 -6 -13 -47 -15 -359 -13 l-353 3 3 45
c9 156 122 313 255 356 62 20 172 13 229 -14z m-7 -677 c77 -20 184 -70 191
-89 7 -17 -32 -86 -48 -86 -5 0 -29 11 -52 25 -63 37 -142 58 -221 59 -88 0
-157 -33 -198 -97 -72 -110 0 -208 208 -283 253 -90 348 -171 362 -311 13
-124 -53 -246 -161 -297 -154 -73 -358 -50 -529 61 l-68 43 18 31 c10 17 26
38 36 46 16 15 21 14 62 -16 63 -45 140 -78 213 -91 183 -32 348 85 312 222
-22 80 -97 138 -250 193 -201 72 -278 123 -321 212 -59 121 0 285 125 350 85
45 213 55 321 28z"/>
<path d="M3307 3620 c-104 -19 -209 -97 -248 -185 -27 -62 -28 -157 -1 -217
41 -93 135 -155 338 -223 133 -44 170 -64 216 -112 61 -64 73 -124 39 -200
-15 -31 -33 -49 -72 -72 -134 -77 -301 -57 -464 54 -37 24 -39 25 -58 8 -10
-10 -26 -31 -34 -48 -15 -28 -15 -30 18 -58 86 -72 227 -120 359 -121 113 -1
183 15 247 57 61 40 88 70 118 132 100 209 -22 378 -350 485 -175 56 -247 116
-249 203 -2 175 231 243 447 130 28 -15 55 -29 58 -31 8 -4 59 74 59 90 0 18
-83 62 -162 87 -79 24 -194 33 -261 21z"/>
<path d="M3935 3618 c-3 -7 -4 -274 -3 -593 l3 -580 58 -3 57 -3 0 198 c0 109
5 218 11 243 15 66 53 115 112 145 113 56 241 15 297 -96 19 -36 21 -58 21
-252 0 -117 4 -218 8 -225 5 -9 26 -12 62 -10 l54 3 3 219 c3 250 -4 285 -68
372 -106 142 -310 183 -451 89 -29 -18 -41 -22 -44 -13 -3 7 -6 126 -7 263
l-3 250 -53 3 c-36 2 -54 -1 -57 -10z"/>
<path d="M4993 3166 c-88 -28 -178 -109 -223 -201 -21 -42 -25 -64 -25 -145 0
-83 3 -102 27 -150 73 -148 237 -235 395 -210 134 22 255 124 293 246 26 84
25 145 -1 230 -18 59 -30 77 -88 134 -83 84 -146 110 -259 109 -42 0 -96 -6
-119 -13z m219 -125 c92 -41 142 -119 142 -221 0 -72 -23 -129 -71 -176 -102
-98 -296 -82 -372 29 -70 103 -67 200 9 307 51 72 197 103 292 61z"/>
<path d="M5620 2620 l0 -561 58 3 57 3 3 233 c1 127 6 232 11 232 4 0 19 -8
32 -19 95 -74 250 -86 368 -29 56 27 141 110 169 164 72 141 44 310 -68 424
-76 76 -151 105 -270 105 -78 0 -92 -3 -155 -35 -39 -19 -73 -36 -77 -38 -5
-2 -8 15 -8 37 l0 41 -60 0 -60 0 0 -560z m475 417 c125 -66 173 -212 111
-334 -91 -180 -352 -177 -443 5 -25 50 -24 164 1 212 34 65 85 108 156 131 37
12 142 4 175 -14z"/>
<path d="M6724 3160 c-215 -85 -295 -364 -158 -551 87 -119 225 -171 393 -148
79 11 172 51 206 88 19 22 19 23 0 57 -29 54 -40 59 -74 35 -124 -89 -290 -88
-396 1 -34 29 -80 112 -70 128 4 6 106 10 278 10 150 0 278 4 286 9 21 13 8
118 -21 183 -31 68 -109 148 -173 179 -70 33 -198 38 -271 9z m221 -120 c22
-10 50 -27 62 -38 22 -19 63 -81 63 -94 0 -5 -99 -8 -220 -8 -121 0 -220 4
-220 9 0 26 69 107 109 128 57 30 148 31 206 3z"/>
<path d="M7600 3171 c-84 -26 -173 -99 -211 -173 -74 -145 -54 -306 53 -423
114 -125 322 -157 493 -75 34 16 70 38 80 50 20 22 15 39 -26 89 -18 22 -21
22 -37 8 -10 -9 -44 -28 -77 -43 -50 -23 -74 -28 -140 -28 -91 1 -133 15 -190
65 -35 31 -74 97 -75 127 0 9 62 12 278 12 203 0 281 3 290 12 29 29 -2 155
-59 239 -41 61 -110 114 -178 137 -38 13 -162 15 -201 3z m183 -124 c47 -20
95 -64 118 -108 l19 -39 -220 0 c-121 0 -220 2 -220 4 0 2 7 19 15 39 16 38
63 83 110 103 39 17 137 18 178 1z"/>
</g>
</svg>
