<?xml version="1.0" standalone="no"?>
<!DOCTYPE svg PUBLIC "-//W3C//DTD SVG 20010904//EN"
 "http://www.w3.org/TR/2001/REC-SVG-20010904/DTD/svg10.dtd">
<svg version="1.0" xmlns="http://www.w3.org/2000/svg"
 width="900.000000pt" height="626.000000pt" viewBox="0 0 900.000000 626.000000"
 preserveAspectRatio="xMidYMid meet">

<g transform="translate(0.000000,626.000000) scale(0.100000,-0.100000)"
fill="#000000" stroke="none">
<path d="M2175 4024 c-286 -180 -345 -210 -428 -219 -113 -12 -178 12 -395
147 -51 32 -95 58 -98 58 -2 0 -4 -138 -4 -306 0 -280 2 -308 18 -321 16 -13
-44 17 -468 234 -80 41 -136 68 -126 59 11 -9 24 -16 28 -16 5 0 8 -217 8
-482 l-1 -483 465 -291 c256 -160 483 -299 506 -309 l40 -18 117 71 c260 156
1100 681 1128 705 l30 25 3 449 c2 346 0 458 -10 488 -12 37 -26 47 -273 197
-154 93 -270 157 -285 157 -15 0 -120 -60 -255 -145z"/>
<path d="M1234 3710 c0 -173 2 -244 3 -157 2 86 2 228 0 315 -1 86 -3 15 -3
-158z"/>
<path d="M7330 3731 l0 -219 -37 34 c-91 84 -251 98 -371 34 -123 -65 -193
-182 -200 -332 -7 -150 47 -273 156 -353 71 -52 129 -68 226 -63 86 5 135 23
195 73 l31 27 0 -46 0 -46 85 0 85 0 0 555 0 555 -85 0 -85 0 0 -219z m-110
-286 c79 -41 119 -116 120 -221 0 -59 -5 -81 -28 -125 -66 -126 -234 -158
-339 -66 -134 118 -97 363 63 423 48 18 139 12 184 -11z"/>
<path d="M3680 3360 l0 -520 245 0 245 0 0 85 0 85 -155 0 -155 0 0 435 0 435
-90 0 -90 0 0 -520z"/>
<path d="M4459 3597 c-75 -31 -120 -68 -163 -130 -46 -68 -66 -126 -73 -212
-10 -128 45 -269 132 -340 73 -59 122 -78 216 -83 78 -4 92 -2 147 23 33 15
71 38 83 51 12 13 25 24 28 24 3 0 6 -19 6 -42 l0 -43 83 -3 82 -3 0 386 0
386 -82 -3 -83 -3 0 -43 c0 -23 -2 -42 -4 -42 -2 0 -17 11 -33 25 -61 51 -108
68 -198 72 -72 3 -94 0 -141 -20z m235 -139 c24 -7 59 -30 83 -54 95 -96 95
-262 0 -358 -89 -88 -224 -89 -312 -1 -98 97 -98 262 -2 359 62 62 142 80 231
54z"/>
<path d="M6062 3599 c-70 -27 -161 -112 -195 -182 -79 -162 -49 -360 71 -483
68 -68 131 -97 228 -102 99 -5 163 13 222 63 22 19 43 35 46 35 3 0 6 -20 6
-45 l0 -45 80 0 80 0 0 385 0 385 -80 0 -80 0 0 -45 c0 -50 -8 -55 -36 -24
-65 72 -235 101 -342 58z m229 -140 c51 -16 105 -62 132 -112 31 -59 31 -184
0 -243 -87 -163 -316 -166 -397 -6 -47 94 -45 177 8 264 53 89 155 127 257 97z"/>
<path d="M7852 3599 c-160 -62 -266 -265 -233 -446 34 -188 168 -313 343 -322
94 -4 158 15 216 64 22 19 43 35 46 35 3 0 6 -20 6 -45 l0 -46 83 3 82 3 0
380 0 380 -82 3 -83 3 0 -53 0 -52 -32 31 c-18 18 -58 43 -88 57 -71 33 -179
35 -258 5z m229 -140 c51 -16 105 -62 132 -112 17 -33 22 -59 22 -122 0 -92
-20 -141 -79 -193 -95 -84 -258 -62 -325 43 -128 202 33 449 250 384z"/>
<path d="M5140 3530 l0 -81 195 3 c107 2 195 2 195 0 0 -2 -90 -111 -200 -243
l-201 -240 3 -62 3 -62 313 -3 312 -2 0 75 0 75 -200 0 c-110 0 -200 3 -200 6
0 4 88 111 195 239 l195 232 0 72 0 71 -305 0 -305 0 0 -80z"/>
<path d="M650 2736 c0 -3 9 -10 20 -16 11 -6 20 -8 20 -6 0 3 -9 10 -20 16
-11 6 -20 8 -20 6z"/>
</g>
</svg>
