<?xml version="1.0" standalone="no"?>
<!DOCTYPE svg PUBLIC "-//W3C//DTD SVG 20010904//EN"
 "http://www.w3.org/TR/2001/REC-SVG-20010904/DTD/svg10.dtd">
<svg version="1.0" xmlns="http://www.w3.org/2000/svg"
 width="1200.000000pt" height="1200.000000pt" viewBox="0 0 1200.000000 1200.000000"
 preserveAspectRatio="xMidYMid meet">

<g transform="translate(0.000000,1200.000000) scale(0.100000,-0.100000)"
fill="#000000" stroke="none">
<path d="M5720 11490 c-1915 -104 -3605 -1168 -4535 -2854 -48 -86 -85 -163
-82 -170 4 -10 1687 -1324 1797 -1403 15 -10 23 5 74 135 180 455 411 807 761
1157 313 314 623 527 1009 695 406 176 812 260 1264 260 655 0 1260 -186 1762
-543 95 -68 275 -213 304 -246 11 -11 24 -21 30 -21 12 0 1566 1550 1566 1562
0 20 -260 241 -454 385 -708 530 -1519 865 -2401 992 -323 46 -784 68 -1095
51z"/>
<path d="M6000 5935 l0 -1065 1480 0 c1403 0 1480 -1 1480 -17 0 -10 -9 -56
-21 -103 -140 -588 -474 -1092 -964 -1457 -55 -41 -101 -78 -102 -81 -1 -4 57
-52 130 -107 72 -55 406 -313 741 -574 765 -595 737 -572 824 -639 l73 -55
120 119 c229 227 429 471 613 749 416 625 688 1333 816 2118 60 368 80 637 80
1047 0 387 -18 632 -72 988 l-22 142 -2588 0 -2588 0 0 -1065z"/>
</g>
</svg>
